<?xml version="1.0" encoding="UTF-8"?>
<svg id="Layer_1" data-name="Layer 1" xmlns="http://www.w3.org/2000/svg" xmlns:xlink="http://www.w3.org/1999/xlink" viewBox="0 0 100 100">
  <defs>
    <style>
      .cls-1 {
        fill: #dcbb5a;
      }

      .cls-2 {
        fill: #d6ae4e;
      }

      .cls-3 {
        fill: url(#linear-gradient);
      }
    </style>
    <linearGradient id="linear-gradient" x1="5.42" y1="49.81" x2="94.58" y2="49.81" gradientUnits="userSpaceOnUse">
      <stop offset="0" stop-color="#a87a24"/>
      <stop offset=".1" stop-color="#bb933c"/>
      <stop offset=".27" stop-color="#daba62"/>
      <stop offset=".41" stop-color="#edd379"/>
      <stop offset=".5" stop-color="#f4dc82"/>
      <stop offset=".59" stop-color="#edd379"/>
      <stop offset=".73" stop-color="#daba62"/>
      <stop offset=".92" stop-color="#bc933c"/>
      <stop offset="1" stop-color="#ad7f29"/>
    </linearGradient>
  </defs>
  <rect width="100" height="100"/>
  <g>
    <path class="cls-1" d="M82.54,16.79c2.04,2.09,3.91,4.99,5.04,6.53-1.62-3.7-6.52-10.35-10.65-11.37-.22-.05,2.75,1.91,5.61,4.84Z"/>
    <path class="cls-2" d="M59.01,94.11c-1.53,.31-3.18,.51-4.48,.87,3.07,.12,6.12-.29,9.15-1.34-.91-.21-3.45,.35-4.67,.47Z"/>
    <path class="cls-2" d="M64.96,92.77c4.23-.43,10.4-4.07,14.08-7.57-5.08,3.29-8.09,5.22-14.08,7.57Z"/>
    <path class="cls-3" d="M94.33,43.45l-1.03-5.53c-.13-.6-.39-1.29-.35-1.87-.27-.38-2.03-5.81-4.74-9.95-1.14-1.74-2.48-3.47-3.81-4.95-1.46-1.63-3.6-3.74-5.44-5-.56-.43-1.04-.74-1.57-1.21-.31-.08-2.22-1.4-2.77-1.7-1.06-.59-5.94-3.18-6.66-3.12-.86,.08-.41,.29-1.31,.09-1.86-.4-3.47-.77-5.22-1.11-1.8-.35-3.44-.59-5.28-.73-.53-.04-.87-.16-1.38-.19l-3.95-.26c-3.51-.18-6.77-.4-10.87,.78-6.19,1.78-4.09,.16,.08-.83,3.63-.86,7.2-1.23,10.41-1.21,7.27,.03,7.91,1.13,13.59,2.15-.61-.36-2.46-.95-3.18-1.18-6.75-2.15-6.16-1-9.9-1.84,2.9-.45,7.99,.52,11.1,.97,4.2,.88,8.42,2.96,10.59,3.56-1.94-1.41-6.7-2.99-9.27-3.76-3.02-.9-4.55-.99-7.41-1.39-1.35-.19-3.6-.19-5.14-.15-3.37,.08-6.74,.42-10.04,1.15-1.76,.39-3.14,.77-4.91,1.33-3.49,1.11-9.15,4.34-12.27,6.6-1.89,1.37-3.53,2.77-5.2,4.41C4.67,32.11,1.45,53.26,10.57,70.34c4.12,7.72,11.08,15.27,18.95,19.17,1.29,.64,3.74,1.5,4.65,2.11,.27-.03,4.22,1.26,4.81,1.42,1.49,.41,3.67,.95,5.03,1.09,2.87,.3,4.37,.58,7.53,.43,3.09-.14,7.4-.69,10.18-1.81-2.25,.05-7.06,1.46-11.54,1.01-3.12-.31-8.17-.3-10.88-1.44,3.81,.32,9.15,1.51,13.43,.22-3.74,.11-5.88,.16-9.32-.31-1.18-.16-2.59-.43-4.39-.87-9.31-2.26-13.29-6.65-14.6-8.44,4.36,3.73,9.65,6.21,15.28,7.3l3.89,.7c.5,.09,.86,.06,1.39,.14,1.83,.3,3.47,.47,5.3,.56,1.78,.09,3.44,.12,5.34,.18,3.6,.11,5.16-.13,8.47-1.02,3.46-.93,8.52-3.37,11.4-5.32,1.64-1.12,3.37-2.47,4.89-3.88,3.62-3.36,6.64-8.21,6.99-8.51,.11-.58,.52-1.18,.79-1.73l2.34-5.12c0-.39,1.26-3.79,1.43-4.76l-.43,.87-1.59,3.55c-.3,2.02-4.65,8.43-6.36,10.42-1.98,2.3-8.65,8.63-11.22,8.96,1.82-1.5,2.87-1.81,4.82-3.7,1.03-1,1.11-.9,1.28-1.44-2.87,2.3-6.05,4.54-9.21,5.67,.75-.62,4.53-2.99,6.47-4.48,2.54-1.96,3.98-3.64,5.99-5.87,.41-.62,.93-1.51,1.54-1.9l.09-.27c.36-.83,1.99-2.83,2.68-4.44-1.3,1.46-2.41,3.7-3.81,5.35-1.4,1.66-3.65,3.9-5.5,5.27l3.39-3.7c2.69-2.94,3.44-4.33,5.26-7.7,.44-.81,1.56-3.44,1.85-3.79-1.08,1.31-2.27,3.63-3.47,5.3-1.21,1.69-3.15,3.99-4.79,5.37,1.42-2.38,2.33-2.61,4.35-6.82,1.32-2.76,2.26-5.71,3.11-8.37-1.08,1.74-2.01,4.47-2.86,6.43-.76,1.54-2.29,3.92-3.38,5.4-2,2.71-5.15,5.78-8,7.79-.48,.34-.96,.65-1.48,.98-.64,.41-.98,.7-1.64,.77,1.86-1.49,3.48-2.64,5.34-4.27-.58,.11-1.52,.93-1.99,1.29-.7,.53-1.38,1.01-2.07,1.43-1.18,.72-2.87,1.97-4.08,2.04,2.33-1.65,5.27-3.03,8.81-6.74,1.5-1.57,5.3-6.5,5.69-7.97-1.13,1.56-2.03,3.19-3.46,4.8-.94,1.06-3.58,3.85-4.77,4.49,.28-.52,3.92-4.01,5.5-6.29,1-1.45,3.31-5.18,3.54-6.59l-.99,1.41c-.55,1.15-1.71,2.74-3.08,4.34-2.15,3.11-4.85,5.92-8.08,8.27-6.67,4.84-13.51,6.95-20.08,6.87-11.59-.15-21.74-5.41-29.9-18.16-8.13-14.85-4.14-33.77,9.93-43.97,14.46-10.48,35.07-8.31,46.74,6.41l.78,.78c.46,.51,.94,1.08,1.41,1.65,2.19,2.7,5.43,8.72,6.03,11.62l.62,1.6c.12-1.43-1.22-5.6-1.85-7.25-.99-2.59-3.69-6.86-3.83-7.43,1,.92,2.9,4.26,3.55,5.51,1,1.91,1.47,3.71,2.2,5.49-.03-1.52-2.53-7.22-3.61-9.11-2.54-4.46-4.96-6.07-6.93-8.66,1.15,.35,2.49,1.97,3.47,2.96,.57,.57,1.11,1.2,1.67,1.88,.37,.46,1.09,1.49,1.62,1.73-1.42-2.03-2.71-3.54-4.16-5.43,.63,.22,.89,.59,1.41,1.14,.43,.45,.81,.87,1.2,1.31,2.29,2.63,4.61,6.37,5.89,9.48,.71,1.71,1.62,4.38,1.98,6.06,.35,2.1,.6,4.98,1.23,6.93-.2-2.8-.39-5.87-1.01-8.88-.94-4.57-1.77-5.02-2.58-7.66,1.25,1.73,2.59,4.43,3.35,6.36,.76,1.91,1.36,4.45,2.09,5.98-.19-.41-.65-3.23-.88-4.12-.96-3.71-1.35-5.24-3.25-8.74l-2.4-4.4c1.46,1.78,3.12,4.49,4.07,6.44,.95,1.94,1.5,4.38,2.41,6.11-.28-1.73-1.38-4.05-1.54-4.95l-.02-.28c-.5-.52-.79-1.51-1.04-2.21-1.41-2.65-2.41-4.63-4.4-7.14-1.52-1.91-4.62-5.13-5.2-5.9,2.79,1.85,5.35,4.79,7.58,7.72-.04-.56-.13-.49-.9-1.7-1.44-2.3-2.39-2.85-3.79-4.75,2.41,.94,7.37,8.69,8.74,11.4,1.18,2.34,3.86,9.61,3.67,11.64l.69,3.83,.21,.95c.07-.98-.35-4.59-.25-4.96Z"/>
  </g>
</svg>